<?xml version="1.0" encoding="UTF-8" standalone="no"?>
<!-- Created with Inkscape (http://www.inkscape.org/) -->

<svg
   width="256"
   height="256"
   viewBox="0 0 67.733332 67.733333"
   version="1.1"
   id="svg1"
   inkscape:version="1.4 (1:1.4+202410161351+e7c3feb100)"
   sodipodi:docname="ReleaseСhainButton.svg"
   inkscape:export-filename="../Images/ReleaseСhainButton.png"
   inkscape:export-xdpi="96"
   inkscape:export-ydpi="96"
   xmlns:inkscape="http://www.inkscape.org/namespaces/inkscape"
   xmlns:sodipodi="http://sodipodi.sourceforge.net/DTD/sodipodi-0.dtd"
   xmlns="http://www.w3.org/2000/svg"
   xmlns:svg="http://www.w3.org/2000/svg">
  <sodipodi:namedview
     id="namedview1"
     pagecolor="#505050"
     bordercolor="#ffffff"
     borderopacity="1"
     inkscape:showpageshadow="0"
     inkscape:pageopacity="0"
     inkscape:pagecheckerboard="1"
     inkscape:deskcolor="#505050"
     inkscape:document-units="px"
     inkscape:zoom="4.086974"
     inkscape:cx="130.65902"
     inkscape:cy="129.0686"
     inkscape:window-width="2490"
     inkscape:window-height="1016"
     inkscape:window-x="70"
     inkscape:window-y="27"
     inkscape:window-maximized="1"
     inkscape:current-layer="layer1" />
  <defs
     id="defs1">
    <inkscape:path-effect
       effect="mirror_symmetry"
       start_point="33.741429,-20.641814"
       end_point="33.741429,63.486907"
       center_point="33.741429,21.422547"
       id="path-effect11"
       is_visible="true"
       lpeversion="1.2"
       lpesatellites=""
       mode="vertical"
       discard_orig_path="false"
       fuse_paths="true"
       oposite_fuse="false"
       split_items="false"
       split_open="false"
       link_styles="false" />
    <inkscape:path-effect
       effect="mirror_symmetry"
       start_point="33.902246,-20.239772"
       end_point="33.902246,63.888948"
       center_point="33.902246,21.824588"
       id="path-effect8"
       is_visible="true"
       lpeversion="1.2"
       lpesatellites="#path9"
       mode="vertical"
       discard_orig_path="false"
       fuse_paths="false"
       oposite_fuse="false"
       split_items="true"
       split_open="false"
       link_styles="false" />
    <inkscape:path-effect
       effect="mirror_symmetry"
       start_point="31.790141,8.8962197"
       end_point="31.790141,56.756337"
       center_point="31.790141,32.826278"
       id="path-effect7"
       is_visible="true"
       lpeversion="1.2"
       lpesatellites="#path8"
       mode="vertical"
       discard_orig_path="false"
       fuse_paths="false"
       oposite_fuse="false"
       split_items="true"
       split_open="false"
       link_styles="false" />
    <inkscape:path-effect
       effect="mirror_symmetry"
       start_point="34.15701,-17.63326"
       end_point="34.15701,66.49546"
       center_point="34.15701,24.4311"
       id="path-effect6"
       is_visible="true"
       lpeversion="1.2"
       lpesatellites="#path7"
       mode="vertical"
       discard_orig_path="false"
       fuse_paths="false"
       oposite_fuse="false"
       split_items="true"
       split_open="false"
       link_styles="false" />
    <inkscape:path-effect
       effect="mirror_symmetry"
       start_point="35.293013,-17.079901"
       end_point="35.293013,67.04882"
       center_point="35.293013,24.984459"
       id="path-effect5"
       is_visible="true"
       lpeversion="1.2"
       lpesatellites="#path6"
       mode="vertical"
       discard_orig_path="false"
       fuse_paths="false"
       oposite_fuse="false"
       split_items="true"
       split_open="false"
       link_styles="false" />
    <inkscape:path-effect
       effect="mirror_symmetry"
       start_point="34.132326,-15.758321"
       end_point="34.132326,68.370399"
       center_point="34.132326,26.306039"
       id="path-effect4"
       is_visible="true"
       lpeversion="1.2"
       lpesatellites="#path5"
       mode="vertical"
       discard_orig_path="false"
       fuse_paths="false"
       oposite_fuse="false"
       split_items="true"
       split_open="false"
       link_styles="false" />
    <inkscape:path-effect
       effect="mirror_symmetry"
       start_point="33.674558,-14.94354"
       end_point="33.674558,69.18518"
       center_point="33.674558,27.12082"
       id="path-effect1"
       is_visible="true"
       lpeversion="1.2"
       lpesatellites="#path4"
       mode="vertical"
       discard_orig_path="false"
       fuse_paths="false"
       oposite_fuse="false"
       split_items="true"
       split_open="false"
       link_styles="false" />
    <inkscape:path-effect
       effect="mirror_symmetry"
       start_point="31.902417,3.5029192"
       end_point="31.902417,61.819299"
       center_point="31.902417,32.661109"
       id="path-effect6-7"
       is_visible="true"
       lpeversion="1.2"
       lpesatellites="#path7-5"
       mode="vertical"
       discard_orig_path="false"
       fuse_paths="false"
       oposite_fuse="false"
       split_items="true"
       split_open="false"
       link_styles="false" />
    <inkscape:path-effect
       effect="mirror_symmetry"
       start_point="32.882682,4.215506"
       end_point="32.882682,62.531886"
       center_point="32.882682,33.373696"
       id="path-effect7-9"
       is_visible="true"
       lpeversion="1.2"
       lpesatellites="#path8-0"
       mode="vertical"
       discard_orig_path="false"
       fuse_paths="false"
       oposite_fuse="false"
       split_items="true"
       split_open="false"
       link_styles="false" />
    <inkscape:path-effect
       effect="mirror_symmetry"
       start_point="30.523883,5.9612752"
       end_point="30.523883,57.668959"
       center_point="30.523883,31.815117"
       id="path-effect6-6"
       is_visible="true"
       lpeversion="1.2"
       lpesatellites="#path7-2"
       mode="vertical"
       discard_orig_path="false"
       fuse_paths="false"
       oposite_fuse="false"
       split_items="true"
       split_open="false"
       link_styles="false" />
    <inkscape:path-effect
       effect="mirror_symmetry"
       start_point="33.754943,-19.161002"
       end_point="33.754943,64.967718"
       center_point="33.754943,22.903358"
       id="path-effect7-3"
       is_visible="true"
       lpeversion="1.2"
       lpesatellites="#path8-9"
       mode="vertical"
       discard_orig_path="false"
       fuse_paths="false"
       oposite_fuse="false"
       split_items="true"
       split_open="false"
       link_styles="false" />
    <inkscape:path-effect
       effect="mirror_symmetry"
       start_point="29.292048,8.0521302"
       end_point="29.292048,54.033898"
       center_point="29.292048,31.043014"
       id="path-effect6-8"
       is_visible="true"
       lpeversion="1.2"
       lpesatellites="#path7-6"
       mode="vertical"
       discard_orig_path="false"
       fuse_paths="false"
       oposite_fuse="false"
       split_items="true"
       split_open="false"
       link_styles="false" />
    <inkscape:path-effect
       effect="mirror_symmetry"
       start_point="33.530711,-19.339636"
       end_point="33.530711,64.789084"
       center_point="33.530711,22.724724"
       id="path-effect7-3-4"
       is_visible="true"
       lpeversion="1.2"
       lpesatellites="#path8-9-4"
       mode="vertical"
       discard_orig_path="false"
       fuse_paths="false"
       oposite_fuse="false"
       split_items="true"
       split_open="false"
       link_styles="false" />
    <inkscape:path-effect
       effect="mirror_symmetry"
       start_point="29.358913,1.0509179"
       end_point="29.358913,47.032686"
       center_point="29.358913,24.041802"
       id="path-effect6-3"
       is_visible="true"
       lpeversion="1.2"
       lpesatellites="#path7-0"
       mode="vertical"
       discard_orig_path="false"
       fuse_paths="false"
       oposite_fuse="false"
       split_items="true"
       split_open="false"
       link_styles="false" />
    <inkscape:path-effect
       effect="mirror_symmetry"
       start_point="26.22872,1.5105235"
       end_point="26.22872,41.320515"
       center_point="26.22872,21.415519"
       id="path-effect5-2"
       is_visible="true"
       lpeversion="1.2"
       lpesatellites="#path6-5"
       mode="vertical"
       discard_orig_path="false"
       fuse_paths="false"
       oposite_fuse="false"
       split_items="true"
       split_open="false"
       link_styles="false" />
    <inkscape:path-effect
       effect="mirror_symmetry"
       start_point="29.092498,1.9404847"
       end_point="29.092498,46.925947"
       center_point="29.092498,24.433216"
       id="path-effect6-76"
       is_visible="true"
       lpeversion="1.2"
       lpesatellites="#path7-9"
       mode="vertical"
       discard_orig_path="false"
       fuse_paths="false"
       oposite_fuse="false"
       split_items="true"
       split_open="false"
       link_styles="false" />
    <inkscape:path-effect
       effect="mirror_symmetry"
       start_point="27.728922,5.2453017"
       end_point="27.728922,43.702511"
       center_point="27.728922,24.473906"
       id="path-effect6-4"
       is_visible="true"
       lpeversion="1.2"
       lpesatellites="#path7-5"
       mode="vertical"
       discard_orig_path="false"
       fuse_paths="false"
       oposite_fuse="false"
       split_items="true"
       split_open="false"
       link_styles="false" />
    <inkscape:path-effect
       effect="mirror_symmetry"
       start_point="26.792605,3.2699921"
       end_point="26.792605,45.88434"
       center_point="26.792605,24.577166"
       id="path-effect6-44"
       is_visible="true"
       lpeversion="1.2"
       lpesatellites="#path7-7"
       mode="vertical"
       discard_orig_path="false"
       fuse_paths="false"
       oposite_fuse="false"
       split_items="true"
       split_open="false"
       link_styles="false" />
    <inkscape:path-effect
       effect="mirror_symmetry"
       start_point="24.868658,1.1292102"
       end_point="24.868658,41.405351"
       center_point="24.868658,21.267281"
       id="path-effect5-8"
       is_visible="true"
       lpeversion="1.2"
       lpesatellites="#path6-3"
       mode="vertical"
       discard_orig_path="false"
       fuse_paths="false"
       oposite_fuse="false"
       split_items="true"
       split_open="false"
       link_styles="false" />
  </defs>
  <g
     inkscape:label="Layer 1"
     inkscape:groupmode="layer"
     id="layer1">
    <path
       id="path10"
       style="fill:#ffffff;stroke-width:0.805115"
       d="M 33.996374 29.458667 C 31.37886 29.458667 28.873864 29.603224 26.497607 29.850374 A 6.3081257 6.3081257 0 0 1 28.538309 32.58354 C 30.292183 32.445834 32.112072 32.362882 33.996374 32.362882 C 35.795747 32.362882 37.536041 32.438933 39.216727 32.565454 A 6.3081257 6.3081257 0 0 1 41.288435 29.82867 C 38.973595 29.594925 36.538038 29.458667 33.996374 29.458667 z M 54.542923 32.953544 A 6.6743401 6.6743401 0 0 1 51.367923 34.612357 A 6.3081257 6.3081257 0 0 1 51.387044 34.824747 C 53.303998 35.493782 54.836881 36.264349 55.808479 37.022546 C 56.85318 37.837789 57.186173 38.516065 57.186173 39.044645 C 57.186173 39.573225 56.85318 40.249949 55.808479 41.065193 C 54.763778 41.880436 53.090708 42.714452 50.965364 43.415954 C 46.714677 44.818955 40.671764 45.725891 33.996374 45.725891 C 27.320985 45.725891 21.276521 44.818955 17.025834 43.415954 C 14.90049 42.714452 13.227421 41.880436 12.182719 41.065193 C 11.138013 40.249911 10.805542 39.573225 10.805542 39.044645 C 10.805542 38.516065 11.138018 37.837789 12.182719 37.022546 C 13.110322 36.298681 14.555262 35.564873 16.350423 34.917248 A 6.3081257 6.3081257 0 0 1 16.345772 34.850069 A 6.3081257 6.3081257 0 0 1 16.37161 34.613391 A 6.6743401 6.6743401 0 0 1 13.275159 33.038293 C 12.177813 33.545792 11.203777 34.103014 10.396781 34.732763 C 8.9474997 35.863724 7.9013264 37.327164 7.9013264 39.044645 C 7.9013264 40.762126 8.9474997 42.224014 10.396781 43.354976 C 11.846063 44.485939 13.781692 45.404033 16.115812 46.174442 C 20.784052 47.715263 27.06194 48.630623 33.996374 48.630623 C 40.930808 48.630623 47.207146 47.715263 51.875386 46.174442 C 54.209506 45.404033 56.147202 44.485939 57.596484 43.354976 C 59.045766 42.224014 60.090388 40.762126 60.090388 39.044645 C 60.090388 37.327164 59.045766 35.863724 57.596484 34.732763 C 56.745772 34.068901 55.715445 33.482474 54.542923 32.953544 z " />
    <path
       id="path1"
       style="display:none;fill:#ffffff"
       d="m 35.314532,34.52839 c -2.550676,0 -5.002291,0.09723 -7.34167,0.266134 a 5.6167155,5.6167155 0 0 1 4.222998,3.866431 c 1.023912,-0.03364 2.058362,-0.0584 3.118672,-0.0584 0.104457,0 0.205912,0.0028 0.310059,0.0031 A 5.6167155,5.6167155 0 0 1 40.78965,34.687031 C 39.014747,34.59306 37.199288,34.52839 35.314532,34.52839 Z m 18.380273,1.819528 a 5.8461577,5.8461577 0 0 1 -2.377115,3.655074 c 0.796882,0.158023 1.566364,0.323079 2.274279,0.501778 2.283435,0.576408 4.081197,1.269751 5.144389,1.904276 0.754869,0.450514 0.979714,0.766573 1.052132,0.859379 -0.07227,0.09258 -0.296818,0.408598 -1.052132,0.859379 -1.063192,0.634525 -2.860954,1.32787 -5.144389,1.904277 -4.566871,1.152815 -11.083712,1.902209 -18.277437,1.902209 -7.193724,0 -13.712116,-0.749394 -18.278987,-1.902209 -2.283435,-0.576407 -4.081714,-1.269752 -5.144906,-1.904277 -0.755315,-0.450781 -0.979863,-0.766795 -1.052132,-0.859379 0.07242,-0.09281 0.297265,-0.408865 1.052132,-0.859379 1.063192,-0.634525 2.861471,-1.327868 5.144906,-1.904276 0.0658,-0.01661 0.139856,-0.03116 0.206706,-0.04754 a 5.8461577,5.8461577 0 0 1 -2.955376,-3.394108 c -1.740524,0.523742 -3.262656,1.116993 -4.4839625,1.845882 -1.6242302,0.969359 -3.0799151,2.343293 -3.0799151,4.359424 1e-7,2.016131 1.4556849,3.390065 3.0799151,4.359424 1.6242295,0.969359 3.7143965,1.718805 6.2363105,2.355412 5.043829,1.273213 11.803601,2.025716 19.275309,2.025716 7.471709,0 14.23148,-0.752503 19.275309,-2.025716 2.521914,-0.636607 4.610531,-1.386053 6.234762,-2.355412 1.62423,-0.969359 3.081982,-2.343293 3.081982,-4.359424 0,-2.016131 -1.457752,-3.390065 -3.081982,-4.359424 -1.624231,-0.969359 -3.712848,-1.718804 -6.234762,-2.355411 -0.28646,-0.07231 -0.597689,-0.136766 -0.895036,-0.205672 z" />
    <path
       style="fill:#ffffff;fill-opacity:1;stroke:none;stroke-width:2.31313"
       id="path2-5-5"
       sodipodi:type="arc"
       sodipodi:cx="26.789303"
       sodipodi:cy="30.320742"
       sodipodi:rx="3.96875"
       sodipodi:ry="3.96875"
       d="m 30.758053,30.320742 a 3.96875,3.96875 0 0 1 -3.96875,3.96875 3.96875,3.96875 0 0 1 -3.96875,-3.96875 3.96875,3.96875 0 0 1 3.96875,-3.96875 3.96875,3.96875 0 0 1 3.96875,3.96875 z"
       transform="matrix(0.80511545,0,0,0.80511545,6.6900403,15.426819)"
       inkscape:path-effect="#path-effect7-3" />
    <path
       id="path8-9"
       d="m 30.758053,30.320742 a 3.96875,3.96875 0 0 1 -3.96875,3.96875 3.96875,3.96875 0 0 1 -3.96875,-3.96875 3.96875,3.96875 0 0 1 3.96875,-3.96875 3.96875,3.96875 0 0 1 3.96875,3.96875 z"
       style="fill:#ffffff;fill-opacity:1;stroke:none;stroke-width:2.31313"
       transform="matrix(-0.80511545,0,0,0.80511545,61.043292,15.426819)" />
    <path
       style="fill:#ffffff;fill-opacity:1;stroke:none;stroke-width:2.31313"
       id="path2-5-2"
       sodipodi:type="arc"
       sodipodi:cx="19.737984"
       sodipodi:cy="25.195929"
       sodipodi:rx="3.96875"
       sodipodi:ry="3.96875"
       d="m 23.706734,25.195929 a 3.96875,3.96875 0 0 1 -3.96875,3.96875 3.96875,3.96875 0 0 1 -3.96875,-3.96875 3.96875,3.96875 0 0 1 3.96875,-3.96875 3.96875,3.96875 0 0 1 3.96875,3.96875 z"
       inkscape:path-effect="#path-effect6"
       transform="matrix(0.80511545,0,0,0.80511545,6.36633,14.19681)" />
    <path
       style="fill:#ffffff;fill-opacity:1;stroke:none;stroke-width:2.31313"
       id="path2-5-2-7"
       transform="matrix(0.80511545,0,0,0.80511545,5.4517161,13.751292)"
       d="m 19.255682,17.83884 a 3.96875,3.96875 0 0 1 -3.96875,3.96875 3.96875,3.96875 0 0 1 -3.96875,-3.96875 3.96875,3.96875 0 0 1 3.96875,-3.96875 3.96875,3.96875 0 0 1 3.96875,3.96875 z"
       sodipodi:type="arc"
       sodipodi:ry="3.96875"
       sodipodi:rx="3.96875"
       sodipodi:cy="17.83884"
       sodipodi:cx="15.286932"
       inkscape:path-effect="#path-effect5" />
    <path
       style="fill:#ffffff;fill-opacity:1;stroke:none;stroke-width:2.31313"
       id="path2-5-2-7-6"
       inkscape:path-effect="#path-effect4"
       sodipodi:type="arc"
       sodipodi:cx="19.987383"
       sodipodi:cy="10.50841"
       sodipodi:rx="3.96875"
       sodipodi:ry="3.96875"
       d="m 23.956133,10.50841 a 3.96875,3.96875 0 0 1 -3.96875,3.96875 3.96875,3.96875 0 0 1 -3.96875,-3.96875 3.96875,3.96875 0 0 1 3.96875,-3.9687495 3.96875,3.96875 0 0 1 3.96875,3.9687495 z"
       transform="matrix(0.80511545,0,0,0.80511545,6.386203,12.687268)" />
    <path
       style="fill:#ffffff;fill-opacity:1;stroke:none;stroke-width:2.31313"
       id="path2-5-2-7-6-6"
       inkscape:path-effect="#path-effect1"
       sodipodi:type="arc"
       sodipodi:cx="28.981016"
       sodipodi:cy="6.9069705"
       sodipodi:rx="3.96875"
       sodipodi:ry="3.96875"
       d="m 32.949766,6.9069705 a 3.96875,3.96875 0 0 1 -3.96875,3.9687505 3.96875,3.96875 0 0 1 -3.96875,-3.9687505 3.96875,3.96875 0 0 1 3.96875,-3.96875 3.96875,3.96875 0 0 1 3.96875,3.96875 z"
       transform="matrix(0.80511545,0,0,0.80511545,6.7547592,12.031275)" />
    <path
       id="path4"
       d="m 32.949766,6.9069705 a 3.96875,3.96875 0 0 1 -3.96875,3.9687505 3.96875,3.96875 0 0 1 -3.96875,-3.9687505 3.96875,3.96875 0 0 1 3.96875,-3.96875 3.96875,3.96875 0 0 1 3.96875,3.96875 z"
       style="fill:#ffffff;fill-opacity:1;stroke:none;stroke-width:2.31313"
       transform="matrix(-0.80511545,0,0,0.80511545,60.978573,12.031275)" />
    <path
       id="path5"
       d="m 23.956133,10.50841 a 3.96875,3.96875 0 0 1 -3.96875,3.96875 3.96875,3.96875 0 0 1 -3.96875,-3.96875 3.96875,3.96875 0 0 1 3.96875,-3.9687495 3.96875,3.96875 0 0 1 3.96875,3.9687495 z"
       style="fill:#ffffff;fill-opacity:1;stroke:none;stroke-width:2.31313"
       transform="matrix(-0.80511545,0,0,0.80511545,61.347129,12.687268)" />
    <path
       id="path6"
       d="m 19.255682,17.83884 a 3.96875,3.96875 0 0 1 -3.96875,3.96875 3.96875,3.96875 0 0 1 -3.96875,-3.96875 3.96875,3.96875 0 0 1 3.96875,-3.96875 3.96875,3.96875 0 0 1 3.96875,3.96875 z"
       style="fill:#ffffff;fill-opacity:1;stroke:none;stroke-width:2.31313"
       transform="matrix(-0.80511545,0,0,0.80511545,62.281616,13.751292)" />
    <path
       id="path7"
       d="m 23.706734,25.195929 a 3.96875,3.96875 0 0 1 -3.96875,3.96875 3.96875,3.96875 0 0 1 -3.96875,-3.96875 3.96875,3.96875 0 0 1 3.96875,-3.96875 3.96875,3.96875 0 0 1 3.96875,3.96875 z"
       style="fill:#ffffff;fill-opacity:1;stroke:none;stroke-width:2.31313"
       transform="matrix(-0.80511545,0,0,0.80511545,61.367002,14.19681)" />
    <path
       id="path9"
       style="fill:#ffffff;fill-opacity:1;stroke:none;stroke-width:2.31313"
       d="m 31.113281,33.291016 c -2.191736,1.01e-4 -3.968648,1.777013 -3.96875,3.96875 0.0032,0.113905 0.01237,0.228592 0.02539,0.341796 h 6.572265 6.572266 c 0.01302,-0.113204 0.0202,-0.227891 0.02344,-0.341796 -1.02e-4,-2.191737 -1.777014,-3.968649 -3.96875,-3.96875 -1.007848,-1.17e-4 -1.926918,0.37527 -2.626954,0.99414 -0.700035,-0.61887 -1.621058,-0.994257 -2.628906,-0.99414 z"
       transform="matrix(-0.80511545,0,0,0.80511545,61.032412,16.619043)"
       inkscape:path-effect="#path-effect11"
       inkscape:original-d="m 31.113402,33.29126 a 3.96875,3.96875 0 0 1 3.969208,3.968566 3.96875,3.96875 0 0 1 -0.02439,0.340823 h -7.888993 a 3.96875,3.96875 0 0 1 -0.02439,-0.340823 3.96875,3.96875 0 0 1 3.968566,-3.968566 z" />
  </g>
</svg>
